<svg xmlns="http://www.w3.org/2000/svg" viewBox="0 0 600 400" preserveAspectRatio="xMidYMid slice">
  <defs>
    <linearGradient id="bg" x1="0" y1="0" x2="1" y2="1">
      <stop offset="0%" stop-color="#111827"/>
      <stop offset="100%" stop-color="#030712"/>
    </linearGradient>
  </defs>
  <rect width="600" height="400" fill="url(#bg)"/>
  <g transform="translate(150 140)" fill="none" stroke="#e83382" stroke-width="6" stroke-linejoin="round" stroke-linecap="round" opacity="0.85">
    <path d="M20 80 L50 30 C60 15 80 8 100 8 L200 8 C220 8 240 15 250 30 L280 80 L295 85 C303 88 305 94 300 100 L300 110 C300 114 297 118 292 118 L275 118 C272 130 260 138 248 138 C236 138 224 130 221 118 L79 118 C76 130 64 138 52 138 C40 138 28 130 25 118 L8 118 C3 118 0 114 0 110 L0 100 C-5 94 -3 88 5 85 Z"/>
    <circle cx="65" cy="118" r="14" fill="#030712"/>
    <circle cx="235" cy="118" r="14" fill="#030712"/>
    <path d="M65 30 L105 30 L115 70 L45 70 Z"/>
    <path d="M135 30 L200 30 C215 30 225 40 235 70 L135 70 Z"/>
  </g>
  <text x="300" y="310" text-anchor="middle" font-family="'Exo 2', system-ui, sans-serif" font-weight="700" font-size="22" fill="#9ca3af" letter-spacing="2">NO IMAGE</text>
</svg>
